<?xml version="1.0" encoding="UTF-8" standalone="no"?>
<!-- Created with Inkscape (http://www.inkscape.org/) -->

<svg
   xmlns:dc="http://purl.org/dc/elements/1.1/"
   xmlns:cc="http://creativecommons.org/ns#"
   xmlns:rdf="http://www.w3.org/1999/02/22-rdf-syntax-ns#"
   xmlns:svg="http://www.w3.org/2000/svg"
   xmlns="http://www.w3.org/2000/svg"
   xmlns:sodipodi="http://sodipodi.sourceforge.net/DTD/sodipodi-0.dtd"
   xmlns:inkscape="http://www.inkscape.org/namespaces/inkscape"
   version="1.1"
   id="svg2"
   xml:space="preserve"
   width="93.866669"
   height="33.066666"
   viewBox="0 0 93.866669 33.066666"
   sodipodi:docname="by-sa.svg"
   inkscape:version="0.92.5 (2060ec1f9f, 2020-04-08)"><metadata
     id="metadata8"><rdf:RDF><cc:Work
         rdf:about=""><dc:format>image/svg+xml</dc:format><dc:type
           rdf:resource="http://purl.org/dc/dcmitype/StillImage" /><dc:title></dc:title></cc:Work></rdf:RDF></metadata><defs
     id="defs6" /><sodipodi:namedview
     pagecolor="#ffffff"
     bordercolor="#666666"
     borderopacity="1"
     objecttolerance="10"
     gridtolerance="10"
     guidetolerance="10"
     inkscape:pageopacity="0"
     inkscape:pageshadow="2"
     inkscape:window-width="784"
     inkscape:window-height="480"
     id="namedview4"
     showgrid="false"
     inkscape:zoom="3.6967329"
     inkscape:cx="46.933334"
     inkscape:cy="16.533333"
     inkscape:window-x="472"
     inkscape:window-y="127"
     inkscape:window-maximized="0"
     inkscape:current-layer="g10" /><g
     id="g10"
     inkscape:groupmode="layer"
     inkscape:label="by-sa"
     transform="matrix(1.3333333,0,0,-1.3333333,0,33.066665)"><g
       id="g12"><path
         d="m 2,24.519 66.5,-0.117 c 0.93,0 1.758,0.136 1.758,-1.868 L 70.176,0.491 H 0.32 v 22.125 c 0,0.989 0.094,1.903 1.68,1.903 z"
         style="fill:#aab2ab;fill-opacity:1;fill-rule:nonzero;stroke:none"
         id="path14"
         inkscape:connector-curvature="0" /><path
         d="m 20.254,13.241 c 0,-4.445 -3.578,-8.05 -7.996,-8.054 -4.418,-0.004 -8,3.597 -8.004,8.043 v 0.011 c 0,4.446 3.578,8.051 7.996,8.055 4.418,0.004 8,-3.601 8.004,-8.047 0,0 0,-0.004 0,-0.008 z m 16.918,8.914 c 3.48,0 6.301,-2.839 6.301,-6.339 0,-3.504 -2.821,-6.34 -6.301,-6.34 -3.481,0 -6.301,2.836 -6.301,6.34 0,3.5 2.82,6.339 6.301,6.339 z m 22.906,-6.199 c 0,-3.453 -2.777,-6.254 -6.207,-6.258 -3.43,0 -6.211,2.797 -6.215,6.247 v 0.011 c 0,3.449 2.778,6.25 6.207,6.25 3.43,0.004 6.211,-2.793 6.215,-6.242 z"
         style="fill:#ffffff;fill-opacity:1;fill-rule:nonzero;stroke:none"
         id="path16"
         inkscape:connector-curvature="0" /><path
         d="m 18.758,19.8 c 1.773,-1.789 2.66,-3.973 2.66,-6.559 0,-2.586 -0.871,-4.75 -2.617,-6.488 C 16.953,4.921 14.766,4.007 12.242,4.007 9.75,4.007 7.602,4.913 5.797,6.73 3.992,8.546 3.09,10.714 3.09,13.241 c 0,2.524 0.902,4.711 2.707,6.559 1.758,1.785 3.906,2.676 6.445,2.676 2.57,0 4.742,-0.891 6.516,-2.676 z M 6.992,18.597 c -1.5,-1.524 -2.25,-3.309 -2.25,-5.36 0,-2.046 0.742,-3.816 2.227,-5.308 1.484,-1.496 3.25,-2.242 5.301,-2.242 2.05,0 3.832,0.754 5.347,2.261 1.438,1.403 2.156,3.164 2.156,5.289 0,2.11 -0.73,3.899 -2.191,5.372 -1.461,1.468 -3.23,2.203 -5.312,2.203 -2.082,0 -3.84,-0.739 -5.278,-2.215 z m 3.946,-4.457 c -0.231,0.504 -0.571,0.754 -1.032,0.754 -0.808,0 -1.211,-0.547 -1.211,-1.645 0,-1.094 0.403,-1.644 1.211,-1.644 0.535,0 0.918,0.269 1.149,0.804 l 1.117,-0.601 c -0.531,-0.957 -1.336,-1.434 -2.402,-1.434 -0.825,0 -1.485,0.254 -1.981,0.762 -0.496,0.508 -0.746,1.211 -0.746,2.105 0,0.879 0.258,1.575 0.766,2.09 0.511,0.52 1.152,0.778 1.914,0.778 1.129,0 1.937,-0.45 2.429,-1.344 z m 5.273,0 c -0.231,0.504 -0.566,0.754 -1.008,0.754 -0.824,0 -1.238,-0.547 -1.238,-1.645 0,-1.094 0.414,-1.644 1.238,-1.644 0.535,0 0.91,0.269 1.125,0.804 l 1.145,-0.601 c -0.535,-0.957 -1.332,-1.434 -2.403,-1.434 -0.82,0 -1.48,0.254 -1.976,0.762 -0.496,0.508 -0.742,1.211 -0.742,2.105 0,0.879 0.25,1.575 0.753,2.09 0.504,0.52 1.141,0.778 1.922,0.778 1.125,0 1.934,-0.45 2.422,-1.344 z M 69.082,24.8 H 1.316 C 0.59,24.8 0,24.206 0,23.472 V 0.3 C 0,0.136 0.133,-0.001 0.297,-0.001 h 69.805 c 0.164,0 0.296,0.137 0.296,0.301 v 23.172 c 0,0.734 -0.589,1.328 -1.316,1.328 z M 1.316,24.202 h 67.766 c 0.398,0 0.723,-0.328 0.723,-0.73 V 7.386 H 21.371 C 19.598,4.155 16.176,1.964 12.25,1.964 8.324,1.964 4.902,4.155 3.129,7.386 H 0.594 v 16.086 c 0,0.402 0.324,0.73 0.722,0.73 z M 53.82,22.8 c -1.882,0 -3.476,-0.66 -4.781,-1.984 -1.34,-1.371 -2.012,-2.989 -2.012,-4.864 0,-1.871 0.672,-3.48 2.012,-4.824 1.336,-1.348 2.934,-2.019 4.781,-2.019 1.875,0 3.5,0.679 4.871,2.035 1.293,1.289 1.942,2.894 1.942,4.808 0,1.918 -0.656,3.539 -1.977,4.864 C 57.34,22.14 55.73,22.8 53.82,22.8 Z m 0.02,-1.23 c 1.543,0 2.855,-0.551 3.933,-1.645 1.09,-1.086 1.633,-2.406 1.633,-3.973 0,-1.574 -0.531,-2.879 -1.597,-3.918 -1.125,-1.117 -2.45,-1.675 -3.969,-1.675 -1.52,0 -2.832,0.55 -3.934,1.656 -1.101,1.109 -1.652,2.422 -1.652,3.937 0,1.52 0.555,2.844 1.668,3.973 1.066,1.098 2.375,1.645 3.918,1.645 z m -3.035,-4.649 c 0.273,1.723 1.476,2.645 2.988,2.645 2.172,0 3.496,-1.586 3.496,-3.704 0,-2.062 -1.41,-3.667 -3.531,-3.667 -1.457,0 -2.766,0.906 -3.004,2.679 h 1.715 c 0.051,-0.922 0.644,-1.246 1.492,-1.246 0.969,0 1.598,0.906 1.598,2.285 0,1.449 -0.543,2.219 -1.563,2.219 -0.746,0 -1.391,-0.273 -1.527,-1.211 l 0.5,0.004 -1.352,-1.359 -1.347,1.359 z m -11.809,0.727 c 0,0.246 -0.199,0.445 -0.441,0.445 h -2.782 c -0.242,0 -0.441,-0.199 -0.441,-0.445 v -2.797 h 0.777 v -3.317 h 2.11 v 3.317 h 0.777 z m -1.832,2.726 c 0.524,0 0.949,-0.426 0.949,-0.957 0,-0.527 -0.425,-0.957 -0.949,-0.957 -0.527,0 -0.953,0.43 -0.953,0.957 0,0.531 0.426,0.957 0.953,0.957 z M 37.156,22.8 c -1.886,0 -3.48,-0.66 -4.785,-1.984 -1.34,-1.371 -2.012,-2.989 -2.012,-4.86 0,-1.875 0.672,-3.484 2.012,-4.828 1.336,-1.348 2.934,-2.019 4.785,-2.019 1.871,0 3.496,0.679 4.867,2.035 1.297,1.289 1.946,2.894 1.946,4.812 0,1.918 -0.66,3.535 -1.977,4.86 -1.316,1.324 -2.93,1.984 -4.836,1.984 z m 0.016,-1.23 c 1.543,0 2.855,-0.547 3.933,-1.645 1.09,-1.082 1.637,-2.406 1.637,-3.969 0,-1.574 -0.535,-2.883 -1.601,-3.922 -1.125,-1.117 -2.446,-1.675 -3.969,-1.675 -1.52,0 -2.832,0.55 -3.934,1.66 -1.101,1.105 -1.652,2.418 -1.652,3.937 0,1.516 0.555,2.84 1.668,3.969 1.07,1.098 2.375,1.645 3.918,1.645 z"
         style="fill:#000000;fill-opacity:1;fill-rule:nonzero;stroke:none"
         id="path18"
         inkscape:connector-curvature="0" /><path
         d="m 55.422,5.464 1.453,-3.91 H 55.988 L 55.695,2.425 H 54.242 L 53.938,1.554 h -0.86 l 1.469,3.91 z M 55.473,3.066 54.98,4.499 H 54.969 L 54.465,3.066 Z M 50.609,2.519 c 0.047,-0.09 0.11,-0.164 0.188,-0.219 0.078,-0.059 0.168,-0.102 0.273,-0.129 0.106,-0.027 0.211,-0.039 0.325,-0.039 0.078,0 0.16,0.004 0.246,0.016 0.086,0.015 0.168,0.039 0.246,0.078 0.074,0.035 0.136,0.086 0.187,0.148 0.051,0.063 0.078,0.145 0.078,0.246 0,0.106 -0.035,0.188 -0.101,0.254 C 51.984,2.941 51.895,2.995 51.785,3.038 51.676,3.085 51.555,3.12 51.418,3.155 51.277,3.187 51.141,3.226 51,3.265 50.855,3.3 50.711,3.347 50.574,3.398 50.438,3.452 50.312,3.519 50.207,3.605 50.098,3.687 50.008,3.792 49.941,3.921 49.875,4.046 49.84,4.198 49.84,4.378 c 0,0.199 0.043,0.375 0.129,0.524 0.086,0.144 0.199,0.269 0.336,0.367 0.136,0.097 0.293,0.172 0.465,0.218 0.175,0.047 0.351,0.071 0.523,0.071 0.203,0 0.398,-0.02 0.582,-0.067 C 52.062,5.445 52.23,5.37 52.375,5.269 52.52,5.167 52.633,5.034 52.719,4.878 52.805,4.718 52.848,4.527 52.848,4.3 H 52.02 C 52.012,4.413 51.988,4.511 51.945,4.589 51.902,4.667 51.848,4.726 51.781,4.769 51.711,4.816 51.633,4.847 51.543,4.862 51.457,4.882 51.359,4.89 51.254,4.89 51.188,4.89 51.117,4.882 51.047,4.87 50.98,4.855 50.918,4.827 50.863,4.792 50.809,4.753 50.762,4.71 50.723,4.655 50.688,4.601 50.672,4.53 50.672,4.445 50.672,4.37 50.688,4.308 50.715,4.261 50.742,4.21 50.801,4.167 50.887,4.128 50.969,4.089 51.09,4.046 51.238,4.007 51.391,3.968 51.586,3.917 51.828,3.855 51.902,3.839 52,3.816 52.129,3.777 52.258,3.737 52.387,3.675 52.512,3.593 52.641,3.507 52.75,3.394 52.84,3.253 52.934,3.112 52.98,2.933 52.98,2.714 52.98,2.534 52.945,2.37 52.875,2.218 52.809,2.062 52.703,1.933 52.57,1.82 52.434,1.706 52.266,1.62 52.062,1.558 51.863,1.495 51.629,1.468 51.363,1.468 c -0.215,0 -0.422,0.023 -0.621,0.078 -0.203,0.051 -0.379,0.137 -0.535,0.25 C 50.055,1.909 49.93,2.054 49.84,2.23 49.75,2.405 49.707,2.612 49.711,2.855 h 0.828 c 0,-0.133 0.023,-0.243 0.07,-0.336 z M 36.777,5.464 h 0.961 l 0.91,-1.547 0.903,1.547 h 0.953 l -1.442,-2.41 v -1.5 h -0.859 v 1.519 z m -1.578,0 c 0.184,0 0.352,-0.019 0.504,-0.051 0.156,-0.031 0.285,-0.086 0.395,-0.16 0.109,-0.074 0.191,-0.176 0.254,-0.297 0.058,-0.125 0.089,-0.281 0.089,-0.461 0,-0.199 -0.046,-0.363 -0.136,-0.492 C 36.219,3.87 36.086,3.765 35.91,3.679 36.152,3.609 36.332,3.487 36.449,3.316 36.566,3.14 36.629,2.933 36.629,2.687 36.629,2.491 36.59,2.32 36.512,2.175 36.438,2.03 36.332,1.913 36.203,1.823 36.074,1.73 35.926,1.663 35.762,1.62 35.598,1.573 35.426,1.554 35.254,1.554 h -1.887 v 3.91 z M 35.09,3.882 c 0.152,0 0.277,0.039 0.375,0.109 0.097,0.075 0.148,0.192 0.148,0.356 0,0.09 -0.015,0.164 -0.051,0.223 -0.031,0.058 -0.074,0.105 -0.128,0.136 -0.059,0.031 -0.118,0.055 -0.192,0.071 -0.07,0.011 -0.144,0.015 -0.219,0.015 h -0.8 v -0.91 z m 0.047,-1.66 c 0.086,0 0.164,0.008 0.242,0.023 0.074,0.02 0.144,0.047 0.199,0.086 0.059,0.035 0.106,0.09 0.141,0.153 0.035,0.066 0.051,0.152 0.051,0.253 0,0.2 -0.055,0.344 -0.168,0.43 -0.114,0.086 -0.262,0.129 -0.446,0.129 H 34.223 V 2.222 Z"
         style="fill:#ffffff;fill-opacity:1;fill-rule:nonzero;stroke:none"
         id="path20"
         inkscape:connector-curvature="0" /></g></g></svg>